<svg fill="none" height="25" viewBox="0 0 25 25" width="25" xmlns="http://www.w3.org/2000/svg">
    <path clip-rule="evenodd"
          d="m3.21558 6.71559c0-.82843.67157-1.5 1.5-1.5h16.00002c.8284 0 1.5.67157 1.5 1.5s-.6716 1.5-1.5 1.5h-16.00002c-.82843 0-1.5-.67157-1.5-1.5zm0 6.00001c0-.8284.67157-1.5 1.5-1.5h16.00002c.8284 0 1.5.6716 1.5 1.5s-.6716 1.5-1.5 1.5h-16.00002c-.82843 0-1.5-.6716-1.5-1.5zm0 6c0-.8284.67157-1.5 1.5-1.5h16.00002c.8284 0 1.5.6716 1.5 1.5s-.6716 1.5-1.5 1.5h-16.00002c-.82843 0-1.5-.6716-1.5-1.5z"
          fill="#65676D" fill-rule="evenodd"/>
</svg>