<svg height="32" viewBox="0 0 32 32" width="32" xmlns="http://www.w3.org/2000/svg">
    <path fill="#2d2d2d" d="m20.8851 19.4711a5.9609 5.9609 0 0 0 0-6.9422l2.1149-2.1148 1.293 1.2929a.9995.9995 0 0 0 1.414 0l4-4a.9994.9994 0 0 0 0-1.414l-4-4a.9994.9994 0 0 0 -1.414 0l-4 4a.9994.9994 0 0 0 0 1.414l1.2929 1.293-2.1148 2.1149a5.9609 5.9609 0 0 0 -6.9422 0l-2.5289-2.529v-6.5859h-8v8h6.5859l2.529 2.5289a5.9609 5.9609 0 0 0 0 6.9422l-2.1149 2.1148-1.293-1.2929a.9994.9994 0 0 0 -1.414 0l-4 4a.9994.9994 0 0 0 0 1.414l4 4a.9995.9995 0 0 0 1.414 0l4-4a.9994.9994 0 0 0 0-1.414l-1.2929-1.293 2.1148-2.1149a5.9609 5.9609 0 0 0 6.9422 0l2.5289 2.529v6.5859h8v-8h-6.5859zm4.1149-15.057 2.5859 2.5859-2.5859 2.5859-2.5859-2.5859zm-18 23.1718-2.5859-2.5859 2.5859-2.5859 2.5859 2.5859zm1-19.5859h-4v-4h4zm4 8a4 4 0 1 1 4 4 4.0045 4.0045 0 0 1 -4-4zm12 8h4v4h-4z"/>
    <path d="m0 0h32v32h-32z" fill="none"/>
</svg>