<svg xmlns="http://www.w3.org/2000/svg" viewBox="0 0 512 512">
    <g id="E-learning_completed_course">
        <path fill="#2d2d2d" d="M494.0416,468.0278a5.1448,5.1448,0,0,0-4.5094,5.191V492.05a20.039,20.039,0,0,1,5.24-39.06,5.0016,5.0016,0,0,0,4.4741-3.4131l.0137.0092c.0452-.1281.0679-.2639.1018-.3959.0268-.1058.0613-.2078.0813-.3162a5.0185,5.0185,0,0,0,.0789-.8093c.0007-.0347.01-.0672.01-.1021l-.0019-.0195V239.7064a12.6806,12.6806,0,0,0-12.68-12.68H381.35V141.2565a12.6805,12.6805,0,0,0-12.68-12.6806H242.67V74.8637a32.1041,32.1041,0,0,0,15.8163-47.4906l9.09-9.8743a5.146,5.146,0,0,0,.2-6.8736,5.0019,5.0019,0,0,0-7.4112-.0583l-8.5666,9.3055A32.1153,32.1153,0,0,0,200.0618,37.916H87.7737a10.3771,10.3771,0,0,0-10.2991-9.2251H55.4473a10.369,10.369,0,0,0-10.3442,9.9483A40.243,40.243,0,0,0,12.47,78.106v203.57l.1039-.2094c-.0644.801-.1064,1.6081-.1064,2.4255a30.0311,30.0311,0,0,0,30.042,30.043H151.14v60.59l-.0007.024a30.0311,30.0311,0,0,0,30.042,30.042H269.33v68.252c0,.0539-.0041.1072-.0041.1611,0,.0562.0038.1118.0041.168v.6186l.0142-.0329a30.0149,30.0149,0,0,0,30.0237,29.2883h195.13a5.049,5.049,0,0,0,5.0342-5.0342V473.0044A5.0007,5.0007,0,0,0,494.0416,468.0278ZM231.4658,22.6021A22.0226,22.0226,0,0,1,245.01,27.2466l-12.8146,13.92L226.03,34.82a5,5,0,0,0-7.1739,6.9668l9.85,10.14a4.998,4.998,0,0,0,3.5869,1.5166h.0674a5.0027,5.0027,0,0,0,3.6113-1.6133l15.4138-16.7432a22.138,22.138,0,1,1-19.92-12.4843ZM55.082,39.0562a.366.366,0,0,1,.3653-.3653H77.4746a.3659.3659,0,0,1,.3652.3653V78.8276L75.3477,75.51a10.6267,10.6267,0,0,0-16.7872-.2657l-3.4785,4.337ZM22.47,261.5259V78.106A30.223,30.223,0,0,1,45.082,48.886V83.895A8.3886,8.3886,0,0,0,50.7529,91.9a8.64,8.64,0,0,0,2.8633.4942,8.3839,8.3839,0,0,0,6.5684-3.1915l6.1777-7.7021a.5308.5308,0,0,1,.4981-.2354.6.6,0,0,1,.4912.251l5.2207,6.9492A8.4841,8.4841,0,0,0,87.84,83.37V47.916H199.4833a32.1838,32.1838,0,0,0,31.9825,28.9663c.404,0,.8041-.0157,1.2044-.0305V253.846h-.15l.0022.0041H42.51a29.9187,29.9187,0,0,0-20.0467,7.69Zm5.8676,36.5449a20.0022,20.0022,0,0,1-4.7122-7.5058H153.2148a5,5,0,1,0,0-10H22.7675A20.0582,20.0582,0,0,1,42.51,263.85h173.997a30.0833,30.0833,0,0,0,.0166,40.085H42.51A19.9368,19.9368,0,0,1,28.3379,298.0708Zm209.3359,15.8643a5,5,0,0,0,5-5V284.1065a5.1448,5.1448,0,0,0-4.5094-5.191,5.0007,5.0007,0,0,0-5.4906,4.9766v19.0464a20.0391,20.0391,0,0,1,5.24-39.06,5.0307,5.0307,0,0,0,4.76-5.0283c0-.0122-.0035-.0234-.0036-.0356V222.666h43.78a10.4454,10.4454,0,0,0,10.44-10.43v-45.32a10.4454,10.4454,0,0,0-10.44-10.43H273.6776a5.1473,5.1473,0,0,0-5.1936,4.5062,5.0025,5.0025,0,0,0,4.9763,5.4938h12.99a.4413.4413,0,0,1,.44.44v45.31a.43.43,0,0,1-.43.43H242.67v-46.18h11.5327a5.1471,5.1471,0,0,0,5.1935-4.5062,5.0023,5.0023,0,0,0-4.9762-5.4938H242.67v-17.91H367.0569a4.2933,4.2933,0,0,1,4.2933,4.2933V344.5059h-.13l.0011.0014h-190.04a29.9188,29.9188,0,0,0-20.0437,7.6877l.0024-.0091V313.9351ZM167.01,388.728a20.0022,20.0022,0,0,1-4.7122-7.5058H291.8867a5,5,0,0,0,0-10H161.4394a20.0582,20.0582,0,0,1,19.7422-16.7149H355.1787a30.0834,30.0834,0,0,0,.0156,40.084H181.1816A19.9361,19.9361,0,0,1,167.01,388.728ZM279.33,450.636V404.5913h97.0154a5.0147,5.0147,0,0,0,5-5V374.7637a5.1447,5.1447,0,0,0-4.5094-5.1909,5.0006,5.0006,0,0,0-5.4906,4.9765V393.595a20.0386,20.0386,0,0,1,5.24-39.0593,4.9028,4.9028,0,0,0,2.133-.6214l.0014.0017c.0232-.0125.0437-.0291.0667-.0421a4.9935,4.9935,0,0,0,.7815-.5506c.0935-.0794.188-.1568.2754-.2426.0885-.0879.1705-.18.2522-.2738a5.0117,5.0117,0,0,0,.336-.4291c.0474-.0682.0985-.1324.1425-.2029a5.0074,5.0074,0,0,0,.3872-.7454c.0142-.0347.0243-.0706.0378-.1055a4.9742,4.9742,0,0,0,.2253-.7542c.0109-.0507.0226-.1007.0321-.1518a5.0066,5.0066,0,0,0,.0932-.9121v-112.48H485.237a4.2933,4.2933,0,0,1,4.2933,4.2933V442.9624H299.3682a29.9188,29.9188,0,0,0-20.0442,7.688Zm20.0379,42.41a19.9726,19.9726,0,0,1-18.8844-13.37H410.0732a5,5,0,0,0,0-10H279.626a20.0583,20.0583,0,0,1,19.7422-16.7139H473.3643a30.0833,30.0833,0,0,0,.0175,40.084Z"/>
        <path fill="#2d2d2d" d="M316.9727,222.6694h21.5722a10.4455,10.4455,0,0,0,10.4336-10.4335V166.9185a10.4456,10.4456,0,0,0-10.4336-10.4336H316.9727a10.4456,10.4456,0,0,0-10.4336,10.4336v45.3174A10.4455,10.4455,0,0,0,316.9727,222.6694Zm-.4336-55.7509a.4338.4338,0,0,1,.4336-.4336h21.5722a.4338.4338,0,0,1,.4336.4336v45.3174a.4338.4338,0,0,1-.4336.4335H316.9727a.4338.4338,0,0,1-.4336-.4335Z"/>
        <path fill="#2d2d2d" d="M55.5156,179.2769h92.2657a10.4456,10.4456,0,0,0,10.4335-10.4336V123.5259a10.4458,10.4458,0,0,0-10.4335-10.4346h-12.99a5,5,0,0,0,0,10h12.99a.4347.4347,0,0,1,.4335.4346v45.3174a.4339.4339,0,0,1-.4335.4336H55.5156a.4339.4339,0,0,1-.4336-.4336V123.5259a.4347.4347,0,0,1,.4336-.4346H115.751a5,5,0,0,0,0-10H55.5156A10.4459,10.4459,0,0,0,45.082,123.5259v45.3174A10.4457,10.4457,0,0,0,55.5156,179.2769Z"/>
        <path fill="#2d2d2d" d="M178.3008,179.2769H199.873a10.4456,10.4456,0,0,0,10.4336-10.4336V123.5259a10.4458,10.4458,0,0,0-10.4336-10.4346H178.3008a10.4461,10.4461,0,0,0-10.4346,10.4346v45.3174A10.4459,10.4459,0,0,0,178.3008,179.2769Zm-.4346-55.751a.4355.4355,0,0,1,.4346-.4346H199.873a.4347.4347,0,0,1,.4336.4346v45.3174a.4339.4339,0,0,1-.4336.4336H178.3008a.4347.4347,0,0,1-.4346-.4336Z"/>
        <path fill="#2d2d2d" d="M204.3252,211.2691H136.8145a5,5,0,0,0,0,10h67.5107a5,5,0,0,0,0-10Z"/>
        <path fill="#2d2d2d" d="M204.3252,192.9116H136.8145a5,5,0,0,0,0,10h67.5107a5,5,0,0,0,0-10Z"/>
    </g>
</svg>