<svg enable-background="new 0 0 128 128" height="128" viewBox="0 0 128 128" width="128" xmlns="http://www.w3.org/2000/svg"><g fill="#282d33"><path d="m101.031 121.902-13.625-11.655 2.6-3.039 10.799 9.237 9.72-9.824-9.821-11.733.84-1.247c3.075-4.571 5.284-9.619 6.566-15.005l.335-1.408 15.555-1.313v-13.915l-15.154-1.276-.282-1.495c-1.025-5.448-2.992-10.6-5.845-15.313l-.74-1.223 10.081-12.043-9.717-9.823-11.599 9.923-1.266-.87c-4.521-3.107-9.51-5.339-14.832-6.633l-1.401-.341-1.3-15.724h-13.715l-1.264 15.314-1.49.287c-5.388 1.038-10.479 3.024-15.131 5.904l-1.242.769-11.906-10.185-9.719 9.823 9.822 11.733-.839 1.247c-3.078 4.575-5.287 9.624-6.566 15.006l-.335 1.409-15.556 1.311-.003 13.915 15.155 1.278.281 1.495c1.026 5.452 2.993 10.603 5.847 15.31l.741 1.224-10.084 12.044 9.716 9.825 10.433-8.925 2.601 3.039-13.261 11.345-14.893-15.06 10.599-12.658c-2.462-4.339-4.249-9.005-5.324-13.906l-15.812-1.335.005-21.268 16.354-1.378c1.298-4.837 3.297-9.412 5.958-13.639l-10.243-12.237 14.896-15.057 12.53 10.721c4.283-2.479 8.889-4.277 13.727-5.365l1.319-15.985h21.082l1.366 16.541c4.776 1.311 9.294 3.325 13.465 6.006l12.109-10.36 14.895 15.057-10.597 12.659c2.461 4.342 4.247 9.008 5.322 13.906l15.812 1.331v21.27l-16.356 1.379c-1.299 4.839-3.298 9.414-5.958 13.636l10.243 12.238z"/><path d="m80.662 105.202-3.99-.289c.313-4.319 1.312-7.638 2.97-9.863 10.827-14.1 11.136-27.187 11.136-27.314 0-14.939-12.013-27.093-26.777-27.093s-26.778 12.153-26.778 27.092c0 .128.302 13.223 11.114 27.289 1.673 2.254 2.657 5.575 2.945 9.898l-3.991.266c-.229-3.444-.992-6.198-2.146-7.754-11.598-15.087-11.922-29.557-11.922-29.699 0-17.145 13.807-31.093 30.777-31.093s30.777 13.948 30.777 31.093c0 .142-.325 14.596-11.946 29.727-1.143 1.536-1.92 4.293-2.169 7.74z"/><path d="m41.778 86.991h32.147v4h-32.147z" transform="matrix(.1038 .9946 -.9946 .1038 140.3586 22.2169)"/><path d="m68.15 72.917h4v32.149h-4z" transform="matrix(.9946 .104 -.104 .9946 9.6354 -6.813)"/><path d="m45.289 103.401h37.424v4h-37.424z"/><path d="m45.289 112.108h37.424v4h-37.424z"/><path d="m51.765 120.817h24.472v4h-24.472z"/><path d="m48.977 105.792h4v9.076h-4z"/></g></svg>