<svg height="16" width="16" xmlns="http://www.w3.org/2000/svg"><g fill="#555761"><path d="m.5.99804688c-.277 0-.4999999.22300002-.5.50000002v1c0 .277.223.5.5.5h7c.277 0 .5-.223.5-.5v-1c0-.277-.223-.50000002-.5-.50000002zm0 8.00000002c-.277 0-.4999999.223-.5.5v1.0000001c0 .277.223.5.5.5h7c.277 0 .5-.223.5-.5v-1.0000001c0-.277-.223-.5-.5-.5zm0 4.0000001c-.277 0-.4999999.223-.5.5v1c0 .277.223.5.5.5h7c.277 0 .5-.223.5-.5v-1c0-.277-.223-.5-.5-.5z" opacity=".5"/><path d="m.5 4.9980469c-.2769999 0-.5.223-.5.5v1c0 .277.2230001.5.5.5h15c.277 0 .5-.223.5-.5v-1c0-.277-.223-.5-.5-.5zm11.5 3.0273437a.522.522 0 0 0 -.375.1601563l-2.5 3.0000001c-.231.289.006.8015.375.8125h1.5v3.5c-.004.233.17725.456.40625.5a.489.489 0 0 0 .09375 0h1a.52.52 0 0 0 .5-.5v-3.5h1.5c.277-.008.477844-.299406.464844-.566406a.418.418 0 0 0 -.089844-.246094l-2.5-3.0000001a.522.522 0 0 0 -.375-.1601563z"/></g></svg>